<svg height='100px' width='100px'  fill="#000000" xmlns="http://www.w3.org/2000/svg" xmlns:xlink="http://www.w3.org/1999/xlink" version="1.1" x="0px" y="0px" viewBox="0 0 96 96" style="enable-background:new 0 0 96 96;" xml:space="preserve"><path d="M88,58.3h-2.94L56.91,19.83c-0.02-0.03-0.04-0.05-0.06-0.07c-0.04-0.05-0.08-0.09-0.12-0.14c-0.05-0.05-0.11-0.09-0.17-0.14  c-0.01-0.01-0.02-0.02-0.03-0.02c-0.23-0.16-0.5-0.26-0.79-0.24c-0.01,0-0.02,0-0.03,0c0,0,0,0-0.01,0c0,0-0.01,0-0.01,0  c-0.02,0-0.04,0.01-0.05,0.01c-0.09,0-0.18,0.02-0.27,0.04c-0.03,0.01-0.07,0.02-0.1,0.03c-0.07,0.02-0.14,0.05-0.21,0.08  c-0.03,0.02-0.07,0.04-0.1,0.06c-0.06,0.04-0.12,0.08-0.18,0.12c-0.03,0.02-0.06,0.05-0.09,0.07c-0.06,0.06-0.12,0.12-0.17,0.19  c-0.01,0.02-0.03,0.03-0.04,0.05L27.63,58.3H8c-0.54,0-1.03,0.29-1.3,0.75c-0.27,0.46-0.27,1.03,0,1.5l8.88,15.48  c0.27,0.47,0.76,0.75,1.3,0.75h62.24c0.54,0,1.03-0.29,1.3-0.75l8.88-15.48c0.27-0.46,0.27-1.04,0-1.5  C89.03,58.59,88.54,58.3,88,58.3z M57.2,25.3l24.15,33H57.2V25.3z M54.2,25.49V58.3h-22.9L54.2,25.49z M78.25,73.79h-60.5  L10.59,61.3h74.82L78.25,73.79z"></path></svg>